HIERARCHY
ROOT Reference
{
  OFFSET 0 0 0
  CHANNELS 6 Xposition Yposition Zposition Zrotation Xrotation Yrotation
  JOINT Hips
  {
    OFFSET 251.394 724.17 483.536
    CHANNELS 3 Zrotation Xrotation Yrotation
    JOINT RightUpLeg
    {
      OFFSET -0.450515 -23.4426 -1.37224
      CHANNELS 3 Zrotation Xrotation Yrotation
      JOINT RightLeg
      {
        OFFSET 112.821 0.0872427 -0.321027
        CHANNELS 3 Zrotation Xrotation Yrotation
        JOINT RightFoot
        {
          OFFSET 105.718 0.000193788 0.0213165
          CHANNELS 3 Zrotation Xrotation Yrotation
          JOINT RightToeBase
          {
            OFFSET 37.638 -0.000116272 0.00224792
            CHANNELS 3 Zrotation Xrotation Yrotation
            JOINT RightToeEnd
            {
              OFFSET 21.2112 0.114605 -0.000138184
              CHANNELS 3 Zrotation Xrotation Yrotation
              End Site
              {
                OFFSET 0 0 0
              }
            }
          }
        }
      }
    }
    JOINT LeftUpLeg
    {
      OFFSET -0.449508 23.4315 -1.37054
      CHANNELS 3 Zrotation Xrotation Yrotation
      JOINT LeftLeg
      {
        OFFSET 112.821 -0.0485242 -0.372458
        CHANNELS 3 Zrotation Xrotation Yrotation
        JOINT LeftFoot
        {
          OFFSET 105.716 0.00496094 -0.0229443
          CHANNELS 3 Zrotation Xrotation Yrotation
          JOINT LeftToeBase
          {
            OFFSET 37.639 0 0.00158905
            CHANNELS 3 Zrotation Xrotation Yrotation
            JOINT LeftToeEnd
            {
              OFFSET 21.2113 -0.125031 -0.00017438
              CHANNELS 3 Zrotation Xrotation Yrotation
              End Site
              {
                OFFSET 0 0 0
              }
            }
          }
        }
      }
    }
    JOINT Spine
    {
      OFFSET -5.01225 0.000463591 -9.60395
      CHANNELS 3 Zrotation Xrotation Yrotation
      JOINT Spine1
      {
        OFFSET 26.0222 -0.000271301 -0.000155029
        CHANNELS 3 Zrotation Xrotation Yrotation
        JOINT Spine2
        {
          OFFSET 27.173 -0.000155029 -0.000310058
          CHANNELS 3 Zrotation Xrotation Yrotation
          JOINT Spine3
          {
            OFFSET 36.3953 -0.000232544 7.75146e-005
            CHANNELS 3 Zrotation Xrotation Yrotation
            JOINT Neck
            {
              OFFSET 36.4331 0 -3.00261
              CHANNELS 3 Zrotation Xrotation Yrotation
              JOINT Head
              {
                OFFSET 23.0407 -0.000232544 -0.000310058
                CHANNELS 3 Zrotation Xrotation Yrotation
                End Site
                {
                  OFFSET 0 0 0
                }
              }
            }
            JOINT LeftShoulder
            {
              OFFSET 20.1317 6.74168 -12.6061
              CHANNELS 3 Zrotation Xrotation Yrotation
              JOINT LeftArm
              {
                OFFSET 34.2172 -5.81359e-005 7.75146e-005
                CHANNELS 3 Zrotation Xrotation Yrotation
                JOINT LeftForeArm
                {
                  OFFSET 65.4129 -0.0821605 0.0585235
                  CHANNELS 3 Zrotation Xrotation Yrotation
                  JOINT LeftHand
                  {
                    OFFSET 67.3883 0.0359667 0.0112396
                    CHANNELS 3 Zrotation Xrotation Yrotation
                    JOINT LeftHandThumb1
                    {
                      OFFSET 8.78386 2.85353 -6.05362
                      CHANNELS 3 Zrotation Xrotation Yrotation
                      JOINT LeftHandThumb2
                      {
                        OFFSET 8.25498 -0.000116272 -0.000174407
                        CHANNELS 3 Zrotation Xrotation Yrotation
                        JOINT LeftHandThumb3
                        {
                          OFFSET 7.24822 0.000310058 5.81358e-005
                          CHANNELS 3 Zrotation Xrotation Yrotation
                          JOINT LeftHandThumb4
                          {
                            OFFSET 7.0004 -3.87568e-005 -0.000310057
                            CHANNELS 3 Zrotation Xrotation Yrotation
                            End Site
                            {
                              OFFSET 0 0 0
                            }
                          }
                        }
                      }
                    }
                    JOINT LeftHandIndex1
                    {
                      OFFSET 24.0991 -1.01537 -5.40558
                      CHANNELS 3 Zrotation Xrotation Yrotation
                      JOINT LeftHandIndex2
                      {
                        OFFSET 7.26759 -0.000290679 -0.000465086
                        CHANNELS 3 Zrotation Xrotation Yrotation
                        JOINT LeftHandIndex3
                        {
                          OFFSET 7.13628 -1.93787e-005 0.000232543
                          CHANNELS 3 Zrotation Xrotation Yrotation
                          JOINT LeftHandIndex4
                          {
                            OFFSET 5.46699 9.68932e-005 -0.000387571
                            CHANNELS 3 Zrotation Xrotation Yrotation
                            End Site
                            {
                              OFFSET 0 0 0
                            }
                          }
                        }
                      }
                    }
                    JOINT LeftHandMiddle1
                    {
                      OFFSET 24.4604 -2.52837 0.918567
                      CHANNELS 3 Zrotation Xrotation Yrotation
                      JOINT LeftHandMiddle2
                      {
                        OFFSET 7.41627 -5.81359e-005 0.000116271
                        CHANNELS 3 Zrotation Xrotation Yrotation
                        JOINT LeftHandMiddle3
                        {
                          OFFSET 8.76829 3.87573e-005 -7.75142e-005
                          CHANNELS 3 Zrotation Xrotation Yrotation
                          JOINT LeftHandMiddle4
                          {
                            OFFSET 6.07588 -0.00013565 -5.81356e-005
                            CHANNELS 3 Zrotation Xrotation Yrotation
                            End Site
                            {
                              OFFSET 0 0 0
                            }
                          }
                        }
                      }
                    }
                    JOINT LeftHandRing1
                    {
                      OFFSET 22.465 -1.97467 6.3466
                      CHANNELS 3 Zrotation Xrotation Yrotation
                      JOINT LeftHandRing2
                      {
                        OFFSET 7.36666 -0.000232544 0.000387571
                        CHANNELS 3 Zrotation Xrotation Yrotation
                        JOINT LeftHandRing3
                        {
                          OFFSET 8.07624 -0.000465087 -0.000203475
                          CHANNELS 3 Zrotation Xrotation Yrotation
                          JOINT LeftHandRing4
                          {
                            OFFSET 6.04433 0.00013565 3.87571e-005
                            CHANNELS 3 Zrotation Xrotation Yrotation
                            End Site
                            {
                              OFFSET 0 0 0
                            }
                          }
                        }
                      }
                    }
                    JOINT LeftHandPinky1
                    {
                      OFFSET 19.5278 0.352933 10.4295
                      CHANNELS 3 Zrotation Xrotation Yrotation
                      JOINT LeftHandPinky2
                      {
                        OFFSET 6.16525 5.8136e-005 -0.000251921
                        CHANNELS 3 Zrotation Xrotation Yrotation
                        JOINT LeftHandPinky3
                        {
                          OFFSET 6.14448 -0.000329434 -0.00510625
                          CHANNELS 3 Zrotation Xrotation Yrotation
                          JOINT LeftHandPinky4
                          {
                            OFFSET 4.98555 0.000116272 0.000116271
                            CHANNELS 3 Zrotation Xrotation Yrotation
                            End Site
                            {
                              OFFSET 0 0 0
                            }
                          }
                        }
                      }
                    }
                  }
                }
              }
            }
            JOINT RightShoulder
            {
              OFFSET 20.1309 -6.74152 -12.6063
              CHANNELS 3 Zrotation Xrotation Yrotation
              JOINT RightArm
              {
                OFFSET 34.2171 7.75146e-005 7.75146e-005
                CHANNELS 3 Zrotation Xrotation Yrotation
                JOINT RightForeArm
                {
                  OFFSET 65.4492 0.242543 -0.176501
                  CHANNELS 3 Zrotation Xrotation Yrotation
                  JOINT RightHand
                  {
                    OFFSET 67.3888 -0.0867388 0.0597442
                    CHANNELS 3 Zrotation Xrotation Yrotation
                    JOINT RightHandThumb1
                    {
                      OFFSET 8.78307 -2.85357 -6.05302
                      CHANNELS 3 Zrotation Xrotation Yrotation
                      JOINT RightHandThumb2
                      {
                        OFFSET 8.25493 -7.75145e-005 0
                        CHANNELS 3 Zrotation Xrotation Yrotation
                        JOINT RightHandThumb3
                        {
                          OFFSET 7.24797 -0.000174408 0.000155029
                          CHANNELS 3 Zrotation Xrotation Yrotation
                          JOINT RightHandThumb4
                          {
                            OFFSET 7.00062 0 0
                            CHANNELS 3 Zrotation Xrotation Yrotation
                            End Site
                            {
                              OFFSET 0 0 0
                            }
                          }
                        }
                      }
                    }
                    JOINT RightHandIndex1
                    {
                      OFFSET 24.0991 1.01525 -5.40578
                      CHANNELS 3 Zrotation Xrotation Yrotation
                      JOINT RightHandIndex2
                      {
                        OFFSET 7.26773 7.75144e-005 0.000232543
                        CHANNELS 3 Zrotation Xrotation Yrotation
                        JOINT RightHandIndex3
                        {
                          OFFSET 7.13572 -0.000310058 3.87571e-005
                          CHANNELS 3 Zrotation Xrotation Yrotation
                          JOINT RightHandIndex4
                          {
                            OFFSET 5.46717 0 3.87572e-005
                            CHANNELS 3 Zrotation Xrotation Yrotation
                            End Site
                            {
                              OFFSET 0 0 0
                            }
                          }
                        }
                      }
                    }
                    JOINT RightHandMiddle1
                    {
                      OFFSET 24.4603 2.52899 0.918547
                      CHANNELS 3 Zrotation Xrotation Yrotation
                      JOINT RightHandMiddle2
                      {
                        OFFSET 7.41641 -0.000116272 -0.000116272
                        CHANNELS 3 Zrotation Xrotation Yrotation
                        JOINT RightHandMiddle3
                        {
                          OFFSET 8.76765 -3.87577e-005 0.000232543
                          CHANNELS 3 Zrotation Xrotation Yrotation
                          JOINT RightHandMiddle4
                          {
                            OFFSET 6.07609 -0.000193787 -0.000116271
                            CHANNELS 3 Zrotation Xrotation Yrotation
                            End Site
                            {
                              OFFSET 0 0 0
                            }
                          }
                        }
                      }
                    }
                    JOINT RightHandRing1
                    {
                      OFFSET 22.465 1.97571 6.34696
                      CHANNELS 3 Zrotation Xrotation Yrotation
                      JOINT RightHandRing2
                      {
                        OFFSET 7.36684 0.000193786 0.000155029
                        CHANNELS 3 Zrotation Xrotation Yrotation
                        JOINT RightHandRing3
                        {
                          OFFSET 8.07614 -0.000271301 0
                          CHANNELS 3 Zrotation Xrotation Yrotation
                          JOINT RightHandRing4
                          {
                            OFFSET 6.04468 0.000232543 0
                            CHANNELS 3 Zrotation Xrotation Yrotation
                            End Site
                            {
                              OFFSET 0 0 0
                            }
                          }
                        }
                      }
                    }
                    JOINT RightHandPinky1
                    {
                      OFFSET 19.5277 -0.352346 10.4296
                      CHANNELS 3 Zrotation Xrotation Yrotation
                      JOINT RightHandPinky2
                      {
                        OFFSET 6.16508 0 0.000232543
                        CHANNELS 3 Zrotation Xrotation Yrotation
                        JOINT RightHandPinky3
                        {
                          OFFSET 6.14396 -0.000155048 -0.0048834
                          CHANNELS 3 Zrotation Xrotation Yrotation
                          JOINT RightHandPinky4
                          {
                            OFFSET 4.98577 -7.75146e-005 -7.75143e-005
                            CHANNELS 3 Zrotation Xrotation Yrotation
                            End Site
                            {
                              OFFSET 0 0 0
                            }
                          }
                        }
                      }
                    }
                  }
                }
              }
            }
          }
        }
      }
    }
  }
}
MOTION
Frames:	4
Frame Time:	0.0333333
0 0 0 -90 -7.01671e-015 -180 5.40518 10.2871 -177.979 -174.449 -29.1464 -80.6293 -1.2392 -3.22117 -21.8583 -6.38629 -4.08751 25.0987 -0.546909 0.196073 48.4427 -3.47492e-005 -2.56131e-005 -86.4976 173.669 28.5177 -66.1247 -0.0167706 0.443326 -34.5749 11.0347 9.30212 27.1375 0.584597 -0.106776 58.3245 8.47335e-005 3.24362e-005 -86.4976 -1.31075 1.93697 104.814 11.325 -4.35596 -21.568 -11.4648 -1.32291 -8.49302 -0.894579 5.15239 -10.9036 0.568257 -4.31645 24.2319 -14.0085 0.155956 51.2083 96.1821 25.759 -4.96668 40.2586 6.93489 85.2743 -14.5412 -26.7099 77.9418 -8.37283 7.89979 35.3754 -173.375 -50.1251 136.622 0.000425188 5.37126e-005 5.00946 0.000147008 0.000163347 25.7996 0.0001763 -0.00136241 -0.000152076 100.42 79.0802 -71.7829 5.20012e-005 -0.000869999 54.6252 0.00198929 -0.000367255 51.8874 -0.000639477 -0.000534457 -0.00047598 15.4715 85.6674 19.7591 0.00014619 -0.000192106 65.9844 0.00149408 -0.00135082 28.9974 -0.0006113 -0.000175452 0.000214296 16.178 83.9646 32.3101 0.000491241 -0.000992154 38.6713 0.0020542 0.000220158 41.1952 -0.000688985 -0.00118141 0.000747577 20.9212 81.3854 5.33356 0.0014063 -0.000615015 45.7782 0.000352933 0.000207365 33.0153 -0.00019722 -4.78104e-005 -0.000334356 -80.144 -22.4476 -22.5977 -38.8068 -9.55665 105.23 21.3515 -0.960275 49.8636 6.71101 21.0188 32.2203 151.482 55.6225 154.056 -5.94563e-005 -0.000233648 1.26389 0.000336574 -0.000558236 39.8409 -1.52588e-005 6.99019e-015 175.017 -100.424 -79.0796 -62.4804 -4.19014e-005 -0.000416404 49.586 0.000361212 0.000456085 46.5698 6.10352e-005 -0.000274658 -180 -15.4752 -85.6673 18.8154 0.000195999 -0.000586255 65.0455 0.000218648 0.000236585 28.0565 3.05175e-005 6.10351e-005 -180 -16.1823 -83.9645 31.366 0.000198192 -0.000618665 37.7313 0.000142369 6.9272e-005 40.2555 0.000106811 -3.05176e-005 -180 -20.9225 -81.3855 0.509796 0.00273035 -0.00331139 40.9944 0.000246416 0.00409317 28.2306 6.10351e-005 3.05176e-005 -180 
0 0 0 -90 -7.01671e-015 -180 5.38331 10.3755 -177.933 -174.432 -29.2545 -80.5031 -1.23611 -3.20468 -21.911 -6.43403 -3.93727 24.9733 -0.54645 0.19729 48.3127 -3.45796e-005 -3.23926e-005 -86.4976 173.555 28.3694 -65.9557 -0.0413048 0.406653 -34.7398 10.8075 9.42317 27.3217 0.58426 -0.108653 58.1434 8.45156e-005 2.58996e-005 -86.4976 -1.30983 1.93757 104.788 11.2786 -4.29428 -21.6369 -11.2942 -1.27747 -8.55192 -0.904337 5.12982 -10.8636 0.677362 -4.38859 24.4238 -14.1442 0.177082 51.1131 96.1934 25.7514 -5.00491 40.1384 6.98521 85.3892 -15.684 -26.4673 77.1709 -8.44425 6.82825 35.347 -173.375 -50.1252 136.622 0.000425154 4.64743e-005 5.00945 0.000146677 0.000154639 25.7996 0.0001763 -0.00136241 -0.000152076 100.42 79.0802 -71.7828 5.19822e-005 -0.000882255 54.6252 0.00198932 -0.000381111 51.8874 -0.000639478 -0.000536872 -0.00047598 15.4715 85.6674 19.7591 0.000146755 -0.000202378 65.9844 0.00149353 -0.00135717 28.9973 -0.000611303 -0.000175452 0.000214296 16.178 83.9646 32.31 0.000491791 -0.00100287 38.6713 0.00205399 0.000213627 41.1951 -0.000688986 -0.00118141 0.000747576 20.9212 81.3854 5.33355 0.00140578 -0.000620949 45.7781 0.000360461 0.00021422 33.0168 -0.000197218 -4.78104e-005 -0.000334356 -80.1048 -22.4579 -22.5589 -38.7188 -9.47363 105.277 21.544 -1.45818 49.5126 7.44837 21.6461 32.2838 151.482 55.6225 154.056 -5.77931e-005 -0.000230217 1.26364 0.000338636 -0.000560015 39.8408 -1.52588e-005 -6.99025e-015 175.023 -100.424 -79.0796 -62.4805 -4.1808e-005 -0.000416161 49.586 0.00036021 0.000456436 46.5698 6.10352e-005 -0.000274658 -180 -15.4753 -85.6673 18.8153 0.000196049 -0.000585981 65.0455 0.000218219 0.000233132 28.0565 3.05175e-005 4.57763e-005 -180 -16.1823 -83.9645 31.3659 0.000198623 -0.00061824 37.7312 0.000683929 0.000526716 40.2554 0.000106811 -3.05176e-005 -180 -20.9225 -81.3855 0.509739 0.00273191 -0.00331342 40.9943 0.000246289 0.00409321 28.2306 6.10351e-005 1.52588e-005 -180 
0 0 0 -90 -7.01671e-015 -180 5.53452 10.3288 -178.046 -174.177 -29.2801 -80.6079 -1.22758 -3.19547 -21.8335 -6.41332 -4.04129 24.9655 -0.547535 0.194311 48.625 -3.50754e-005 -4.48372e-005 -86.4976 173.609 28.4649 -65.9263 -0.00746927 0.454721 -34.753 10.8004 9.43154 26.9868 0.58434 -0.108197 58.1897 8.44186e-005 1.71604e-005 -86.4976 -1.31028 1.93728 104.801 11.3855 -4.3458 -21.5493 -11.5469 -1.38821 -8.51419 -0.917843 5.22146 -10.7145 0.609419 -4.32676 23.9451 -13.649 -0.17495 51.4675 95.8521 25.8629 -4.38743 40.3772 6.99455 85.2721 -14.8819 -27.3546 77.8117 -8.03019 8.04359 35.4125 -173.375 -50.1252 136.622 0.000425162 3.32425e-005 5.00945 0.000146465 0.000132568 25.7996 0.000176304 -0.00136241 -0.000152076 100.42 79.0802 -71.7827 5.20161e-005 -0.000909686 54.6252 0.00198939 -0.000399384 51.8874 -0.000639477 -0.000540287 -0.00047598 15.4713 85.6674 19.7593 0.000146871 -0.000219926 65.9844 0.0014937 -0.00136749 28.9974 -0.0006113 -0.000175452 0.000214296 16.1779 83.9646 32.3101 0.000492018 -0.00103291 38.6713 0.00205412 0.000205705 41.1951 -0.000688985 -0.00118383 0.000747576 20.9211 81.3853 5.33368 0.00140606 -0.000633283 45.7782 0.000370686 0.000225146 33.0183 -0.00019722 -4.78103e-005 -0.000334356 -80.1568 -22.5735 -21.8579 -38.7842 -8.96865 104.794 21.6395 -1.21385 49.8893 8.15894 21.3678 31.7218 151.482 55.6225 154.056 -5.64698e-005 -0.000232765 1.2634 0.000338278 -0.0005729 39.8409 -3.05175e-005 -3.2339e-014 175.029 -100.424 -79.0796 -62.4806 -4.20265e-005 -0.000416521 49.5861 0.000360609 0.000456676 46.5698 6.10352e-005 -0.000289917 -180 -15.4753 -85.6674 18.8153 0.000196255 -0.000592765 65.0455 0.000218624 0.000226284 28.0565 3.05175e-005 4.57763e-005 -180 -16.1823 -83.9645 31.3659 0.000198797 -0.000620566 37.7313 0.00122811 0.000984548 40.2553 0.000106811 -4.57763e-005 -180 -20.9225 -81.3855 0.509769 0.00273213 -0.00332088 40.9944 0.000246431 0.00409327 28.2306 6.10351e-005 1.52588e-005 -180 
0 0 0 -90 -7.01671e-015 -180 5.39293 10.3149 -177.952 -174.128 -29.387 -80.4928 -1.21992 -3.19137 -21.7383 -6.29418 -4.34183 24.9107 -0.547457 0.19452 48.6024 -3.52336e-005 -6.56895e-005 -86.4976 173.583 28.5169 -65.9798 0.0233196 0.500336 -34.6615 10.9914 9.15085 26.8888 0.584462 -0.107545 58.2531 8.45916e-005 8.54007e-008 -86.4976 -1.3094 1.93789 104.774 11.1771 -4.3258 -21.543 -11.3926 -1.33367 -8.41944 -0.895196 5.12276 -10.9337 0.559933 -4.12463 23.9812 -13.2629 -0.267504 51.3942 95.7531 25.8329 -4.46431 40.6148 7.28337 85.1433 -14.376 -27.8827 78.2711 -7.59636 8.87376 35.4366 -173.375 -50.1252 136.622 0.000425173 1.08457e-005 5.00945 0.000146611 8.48411e-005 25.7996 0.000176302 -0.00136241 -0.000152076 100.419 79.0802 -71.7824 5.2224e-005 -0.000957898 54.6252 0.0019892 -0.000441956 51.8874 -0.000639477 -0.000547118 -0.00047598 15.4712 85.6673 19.7594 0.000147386 -0.00024853 65.9844 0.00149355 -0.00138827 28.9973 -0.000611301 -0.000177867 0.000214296 16.1779 83.9646 32.3101 0.000492512 -0.0011033 38.6713 0.00205423 0.000195579 41.1951 -0.000688986 -0.00118624 0.000747576 20.9209 81.3853 5.33384 0.00140597 -0.00065083 45.7782 0.00038093 0.000233694 33.0198 -0.000197218 -5.02252e-005 -0.000334356 -80.2355 -22.7262 -20.9968 -38.7886 -8.56825 104.414 21.7095 -1.27756 50.2256 9.09782 21.3981 31.1851 151.482 55.6225 154.056 -5.47919e-005 -0.0002302 1.26315 0.000337247 -0.000589632 39.8409 -3.18382e-005 -1.52015e-005 175.035 -100.424 -79.0796 -62.4808 -4.24667e-005 -0.000417036 49.5861 0.000361073 0.000455289 46.5698 6.10352e-005 -0.000289917 -180 -15.4753 -85.6674 18.8153 0.000196114 -0.000598593 65.0455 0.00021986 0.000212942 28.0565 3.05175e-005 4.57763e-005 -180 -16.1823 -83.9645 31.366 0.000198428 -0.000626226 37.7313 0.00177149 0.00144277 40.2553 0.000106811 -6.10351e-005 -180 -20.9225 -81.3855 0.509739 0.00273039 -0.00333372 40.9944 0.000246564 0.0040934 28.2306 6.10351e-005 -7.01671e-015 -180 
